<?xml version="1.0" encoding="UTF-8" standalone="no"?>
<!-- Created with Inkscape (http://www.inkscape.org/) -->

<svg
   version="1.1"
   id="svg42775"
   width="1600"
   height="1600"
   viewBox="0 0 1600 1600"
   sodipodi:docname="desert-in-the-mountains-vector-pdv.svg"
   inkscape:version="1.2 (dc2aedaf03, 2022-05-15)"
   xmlns:inkscape="http://www.inkscape.org/namespaces/inkscape"
   xmlns:sodipodi="http://sodipodi.sourceforge.net/DTD/sodipodi-0.dtd"
   xmlns="http://www.w3.org/2000/svg"
   xmlns:svg="http://www.w3.org/2000/svg">
  <defs
     id="defs42779">
    <clipPath
       clipPathUnits="userSpaceOnUse"
       id="clipPath42793">
      <path
         d="M 0,1200 H 1200 V 0 H 0 Z"
         id="path42791" />
    </clipPath>
  </defs>
  <sodipodi:namedview
     id="namedview42777"
     pagecolor="#ffffff"
     bordercolor="#000000"
     borderopacity="0.25"
     inkscape:showpageshadow="2"
     inkscape:pageopacity="0.0"
     inkscape:pagecheckerboard="0"
     inkscape:deskcolor="#d1d1d1"
     showgrid="false"
     inkscape:zoom="0.523125"
     inkscape:cx="800"
     inkscape:cy="800.95579"
     inkscape:window-width="1920"
     inkscape:window-height="1017"
     inkscape:window-x="-8"
     inkscape:window-y="-8"
     inkscape:window-maximized="1"
     inkscape:current-layer="g42783">
    <inkscape:page
       x="0"
       y="0"
       id="page42781"
       width="1600"
       height="1600" />
  </sodipodi:namedview>
  <g
     id="g42783"
     inkscape:groupmode="layer"
     inkscape:label="Page 1"
     transform="matrix(1.3333333,0,0,-1.3333333,0,1600)">
    <path
       d="M 5.733,0 H 1200 V 1195.519 H 5.733 Z"
       style="fill:#edf7cd;fill-opacity:1;fill-rule:nonzero;stroke:none"
       id="path42785" />
    <g
       id="g42787">
      <g
         id="g42789"
         clip-path="url(#clipPath42793)">
        <g
           id="g42795"
           transform="translate(453.1445,882.1099)">
          <path
             d="m 0,0 v 129.586 c 0,23.302 9.936,43.348 28.472,57.456 18.537,14.116 40.508,18.351 62.963,12.146 69.512,-19.2 120.812,-83.081 120.812,-158.563 v -54.091 c 0,-48.136 31.675,-89.106 75.247,-103.135 13.549,-4.363 27.111,-2.187 38.614,6.194 11.504,8.381 17.733,20.627 17.733,34.86 V 4.581 c 0,38.666 23.999,71.909 57.867,85.593 11.154,4.508 22.807,3.282 32.78,-3.445 C 444.465,80 449.965,69.657 449.965,57.625 V 41.648 c 0,-49.614 39.948,-90.205 89.324,-91.238 16.799,-0.356 30.856,12.73 31.705,29.512 0.515,10.17 5.02,18.931 13.093,25.405 8.592,6.888 18.834,9.272 29.585,6.881 34.984,-7.779 61.276,-39.102 61.276,-76.37 V -75.82 c 0,-17.128 13.967,-31.099 31.095,-31.099 h 44.439 V -884.484 H -447.411 l -10e-4,798.794 h 77.096 c 78.245,0 145.301,41.188 180.675,110.98 10.123,19.964 29.254,34.649 51.985,38.633 7.551,1.326 14.585,-0.563 20.457,-5.496 5.876,-4.933 8.954,-11.535 8.954,-19.204 v -3.469 c 0,-32.255 18.506,-60.323 45.441,-74.134 13.757,-7.051 28.974,-6.481 42.163,1.582 C -7.448,-28.738 0,-15.459 0,0"
             style="fill:#d9e6b1;fill-opacity:1;fill-rule:evenodd;stroke:none"
             id="path42797" />
        </g>
        <g
           id="g42799"
           transform="translate(874.4502,564.0156)">
          <path
             d="m 0,0 20.503,50.771 c 14.848,36.767 48.688,59.595 88.339,59.595 H 329.177 V -566.39 l -6.565,1.811 -1191.329,-1.811 v 67.008 z"
             style="fill:#ffcc00;fill-opacity:1;fill-rule:evenodd;stroke:none"
             id="path42801" />
        </g>
        <g
           id="g42803"
           transform="translate(5.7334,174.1123)">
          <path
             d="m 0,0 762.39,-0.001 c 87.268,0 158.442,-71.177 158.442,-158.445 v -18.04 H 0 Z"
             style="fill:#f5ac00;fill-opacity:1;fill-rule:evenodd;stroke:none"
             id="path42805" />
        </g>
        <g
           id="g42807"
           transform="translate(1203.627,147.125)">
          <path
             d="m 0,0 v -22.676 c -2.612,3.155 -7.69,6.018 -13.812,8.105 -6.242,2.128 -13.562,3.451 -20.454,3.451 h -17.635 l 33.007,-41.489 c 12.192,-15.321 9.628,-27.858 -5.692,-27.858 h -0.004 c -15.32,0 -37.831,12.537 -50.018,27.858 l -49.887,62.703 h -10.761 c -4.204,0 -7.39,-0.805 -9.131,-2.104 -1.74,-1.299 -2.038,-3.088 -0.472,-5.057 l 14.007,-17.605 c 2.519,-3.164 -0.921,-5.727 -7.679,-5.727 -6.757,0 -14.278,2.563 -16.792,5.727 l -14.009,17.605 c -4.079,5.13 -3.319,9.787 1.199,13.155 4.522,3.371 12.803,5.461 23.764,5.461 h 10.761 l -53.201,66.863 h 55.719 L -66.836,7.651 h 17.633 C -32.69,7.651 -15.283,4.757 0,0"
             style="fill:#dbaf00;fill-opacity:1;fill-rule:evenodd;stroke:none"
             id="path42809" />
        </g>
        <g
           id="g42811"
           transform="translate(1203.627,554.833)">
          <path
             d="m 0,0 v -82.505 h -218.565 c -22.69,0 -41.251,18.562 -41.251,41.251 0,22.69 18.561,41.254 41.251,41.254 z"
             style="fill:#ffdd30;fill-opacity:1;fill-rule:evenodd;stroke:none"
             id="path42813" />
        </g>
        <g
           id="g42815"
           transform="translate(653.7119,564.0156)">
          <path
             d="m 0,0 -86.118,86.118 c -49.991,49.991 -110.829,75.188 -181.523,75.188 h -380.338 l 0.001,-660.688 791.245,266.704 -37.144,190.229 z"
             style="fill:#f5ac00;fill-opacity:1;fill-rule:evenodd;stroke:none"
             id="path42817" />
        </g>
        <g
           id="g42819"
           transform="translate(51.0327,660.957)">
          <path
             d="m 0,0 h 265.315 c 8.758,0 15.919,-7.165 15.919,-15.918 0,-8.758 -7.161,-15.919 -15.919,-15.919 H 0 c -8.757,0 -15.918,7.161 -15.918,15.919 C -15.918,-7.165 -8.757,0 0,0"
             style="fill:#ffbb00;fill-opacity:1;fill-rule:evenodd;stroke:none"
             id="path42821" />
        </g>
        <g
           id="g42823"
           transform="translate(246.874,359.9629)">
          <path
             d="m 0,0 h 0.003 14.496 c 5.665,0 11.362,-0.912 15.97,-2.38 4.608,-1.472 8.125,-3.5 9.445,-5.728 l 11.804,-19.929 c 2.118,-3.579 11.221,-6.481 20.323,-6.481 9.106,0 14.772,2.902 12.65,6.481 l -11.8,19.929 C 69.45,-2.298 60.313,2.971 48.35,6.784 36.39,10.599 21.591,12.965 6.819,12.965 H -7.676 l -33.029,55.777 h -45.804 l 27.35,-46.178 h -0.004 -8.843 c -9.01,0 -16.333,-1.443 -20.872,-3.771 -4.54,-2.329 -6.308,-5.541 -4.208,-9.086 l 7.199,-12.16 c 1.292,-2.183 6.847,-3.952 12.402,-3.952 5.555,0 9.009,1.769 7.717,3.952 l -7.202,12.16 c -0.805,1.361 -0.121,2.598 1.627,3.492 1.751,0.899 4.567,1.455 8.021,1.455 h 8.844 l 23.477,-39.644 c 7.462,-12.596 23.867,-22.901 36.462,-22.901 12.596,0 16.8,10.305 9.338,22.901 z"
             style="fill:#db9900;fill-opacity:1;fill-rule:evenodd;stroke:none"
             id="path42825" />
        </g>
        <g
           id="g42827"
           transform="translate(876.2158,564.0156)">
          <path
             d="m 0,0 v -196.543 c 0,-166.923 -135.916,-302.839 -302.839,-302.839 h -567.643 v 317.286 h 545.686 c 56.215,0 102.292,46.076 102.292,102.289 l 0,79.807 z"
             style="fill:#824a12;fill-opacity:1;fill-rule:evenodd;stroke:none"
             id="path42829" />
        </g>
        <g
           id="g42831"
           transform="translate(802.9443,170.2363)">
          <path
             d="M 0,0 C -55.59,-64.607 -137.898,-105.602 -229.568,-105.602 H -797.211 V 3.876 L -34.821,3.875 C -22.865,3.875 -11.213,2.528 0,0"
             style="fill:#6e3b08;fill-opacity:1;fill-rule:evenodd;stroke:none"
             id="path42833" />
        </g>
        <g
           id="g42835"
           transform="translate(169.2954,381.9199)">
          <path
             d="m 0,0 h 64.579 l 5.324,-8.992 h 14.495 c 14.771,0 29.571,-2.366 41.53,-6.181 11.964,-3.813 21.101,-9.082 24.541,-14.892 l 11.801,-19.929 c 2.121,-3.579 -3.544,-6.481 -12.65,-6.481 -9.103,0 -18.206,2.902 -20.324,6.481 l -11.804,19.929 c -1.319,2.228 -4.836,4.256 -9.444,5.728 -4.609,1.468 -10.305,2.38 -15.971,2.38 H 77.582 77.579 l 14.799,-24.99 c 7.462,-12.596 3.257,-22.901 -9.338,-22.901 -12.595,0 -29,10.305 -36.462,22.901 L 23.101,-7.303 h -8.844 c -3.455,0 -6.27,-0.556 -8.022,-1.455 -1.748,-0.894 -2.432,-2.131 -1.627,-3.492 l 7.203,-12.16 c 1.292,-2.183 -2.163,-3.952 -7.717,-3.952 -5.555,0 -11.11,1.769 -12.402,3.952 l -7.199,12.16 c -2.101,3.545 -0.332,6.757 4.207,9.086 C -8.501,-1.73 -4.653,-0.632 0,0"
             style="fill:#6e3b08;fill-opacity:1;fill-rule:evenodd;stroke:none"
             id="path42837" />
        </g>
        <g
           id="g42839"
           transform="translate(862.0381,564.0156)">
          <path
             d="m 0,0 h -194.148 v -79.807 c 0,-64.041 -52.43,-116.469 -116.471,-116.469 h -545.686 v -288.928 h 567.643 C -129.566,-485.204 0,-355.639 0,-196.543 Z"
             style="fill:#99622b;fill-opacity:1;fill-rule:evenodd;stroke:none"
             id="path42841" />
        </g>
        <g
           id="g42843"
           transform="translate(5.7334,174.1123)">
          <path
             d="m 0,0 v -95.301 h 567.643 c 84.284,0 160.277,36.373 213.111,94.226 -6.028,0.701 -12.153,1.074 -18.364,1.074 z"
             style="fill:#8c5620;fill-opacity:1;fill-rule:evenodd;stroke:none"
             id="path42845" />
        </g>
        <g
           id="g42847"
           transform="translate(175.0474,367.7393)">
          <path
             d="m 0,0 h -20.12 l 6.06,-10.229 c 1.292,-2.183 6.847,-3.953 12.402,-3.953 5.554,0 9.009,1.77 7.717,3.953 z M 116.888,0 H 21.425 l 19.401,-32.767 c 7.462,-12.595 23.867,-22.9 36.462,-22.9 12.595,0 16.8,10.305 9.338,22.9 L 71.827,-7.776 h 0.003 14.495 c 5.666,0 11.363,-0.912 15.971,-2.38 4.608,-1.472 8.125,-3.5 9.444,-5.729 l 11.804,-19.928 c 2.118,-3.58 11.221,-6.481 20.324,-6.481 9.106,0 14.771,2.901 12.65,6.481 l -11.801,19.928 c -3.44,5.811 -12.577,11.079 -24.541,14.893 -1.071,0.346 -2.169,0.674 -3.288,0.992"
             style="fill:#804e1b;fill-opacity:1;fill-rule:evenodd;stroke:none"
             id="path42849" />
        </g>
        <g
           id="g42851"
           transform="translate(5.7334,235.8096)">
          <path
             d="m 0,0 h 538.618 c 57.29,0 109.312,23.374 147.008,61.069 37.699,37.701 61.069,89.719 61.069,147.012 v 120.125 h 25.07 V 208.081 C 771.765,143.864 745.583,85.576 703.352,43.348 661.123,1.116 602.831,-25.066 538.618,-25.066 H 0 Z"
             style="fill:#f2cfa9;fill-opacity:1;fill-rule:evenodd;stroke:none"
             id="path42853" />
        </g>
        <g
           id="g42855"
           transform="translate(1072.5371,408.0918)">
          <path
             d="m 0,0 c -11.075,0 -20.057,8.978 -20.057,20.053 0,11.076 8.982,20.053 20.057,20.053 h 17.632 c 6.891,0 13.162,2.823 17.712,7.373 4.546,4.546 7.368,10.816 7.368,17.707 v 61.654 c 0,11.075 8.978,20.054 20.054,20.054 11.075,0 20.053,-8.979 20.053,-20.054 V 65.186 C 82.819,47.22 75.502,30.921 63.701,19.117 51.901,7.316 35.599,0 17.632,0 Z"
             style="fill:#627300;fill-opacity:1;fill-rule:evenodd;stroke:none"
             id="path42857" />
        </g>
        <g
           id="g42859"
           transform="translate(1044.6758,596.3574)">
          <path
             d="m 0,0 h 0.004 c 15.32,0 27.857,-12.533 27.857,-27.857 V -360.82 H -27.857 V -27.857 C -27.857,-12.533 -15.32,0 0,0"
             style="fill:#82970a;fill-opacity:1;fill-rule:evenodd;stroke:none"
             id="path42861" />
        </g>
        <g
           id="g42863"
           transform="translate(1016.8184,378.3965)">
          <path
             d="M 0,0 C 6.758,0 12.236,5.478 12.236,12.235 12.236,18.992 6.758,24.472 0,24.472 h -10.757 c -4.204,0 -8.032,1.723 -10.806,4.498 -2.774,2.773 -4.495,6.597 -4.495,10.801 v 37.618 c 0,6.756 -5.478,12.235 -12.239,12.235 -6.754,0 -12.232,-5.479 -12.232,-12.235 V 39.771 c 0,-10.961 4.463,-20.906 11.663,-28.105 C -31.664,4.467 -21.719,0 -10.757,0 Z"
             style="fill:#94ab13;fill-opacity:1;fill-rule:evenodd;stroke:none"
             id="path42865" />
        </g>
        <g
           id="g42867"
           transform="translate(206.1689,570.5547)">
          <path
             d="m 0,0 c -9.103,0 -16.488,7.383 -16.488,16.489 0,9.103 7.385,16.485 16.488,16.485 h 14.496 c 5.669,0 10.819,2.318 14.56,6.056 3.738,3.741 6.056,8.895 6.056,14.561 v 50.681 c 0,9.103 7.383,16.485 16.489,16.485 9.102,0 16.485,-7.382 16.485,-16.485 V 53.591 C 68.086,38.819 62.068,25.419 52.368,15.719 42.667,6.015 29.264,0 14.496,0 Z"
             style="fill:#627300;fill-opacity:1;fill-rule:evenodd;stroke:none"
             id="path42869" />
        </g>
        <g
           id="g42871"
           transform="translate(183.269,725.3218)">
          <path
             d="M 0,0 V 0 C 12.595,0 22.9,-10.305 22.9,-22.9 V -296.617 H -22.904 V -22.9 C -22.904,-10.305 -12.595,0 0,0"
             style="fill:#82970a;fill-opacity:1;fill-rule:evenodd;stroke:none"
             id="path42873" />
        </g>
        <g
           id="g42875"
           transform="translate(160.3652,546.1455)">
          <path
             d="M 0,0 C 5.555,0 10.06,4.505 10.06,10.06 10.06,15.61 5.555,20.115 0,20.115 h -8.844 c -3.454,0 -6.601,1.417 -8.881,3.696 -2.28,2.285 -3.696,5.428 -3.696,8.886 v 30.922 c 0,5.554 -4.502,10.056 -10.056,10.056 -5.556,0 -10.06,-4.502 -10.06,-10.056 V 32.697 c 0,-9.012 3.668,-17.19 9.59,-23.107 C -26.03,3.672 -17.853,0 -8.844,0 Z"
             style="fill:#94ab13;fill-opacity:1;fill-rule:evenodd;stroke:none"
             id="path42877" />
        </g>
        <g
           id="g42879"
           transform="translate(420.0259,601.8809)">
          <path
             d="m 0,0 v 0 h 7.818 c 3.054,0 6.128,-0.494 8.612,-1.282 2.484,-0.794 4.384,-1.886 5.095,-3.088 l 6.364,-10.751 c 1.14,-1.927 6.052,-3.495 10.957,-3.495 4.913,0 7.967,1.568 6.823,3.495 L 39.302,-4.37 C 37.451,-1.24 32.524,1.6 26.071,3.658 19.626,5.717 11.642,6.992 3.679,6.992 h -7.821 l -17.812,30.079 h -24.699 l 14.75,-24.904 h -4.774 c -4.857,0 -8.805,-0.777 -11.255,-2.035 -2.446,-1.25 -3.399,-2.985 -2.269,-4.899 l 3.883,-6.556 c 0.697,-1.178 3.693,-2.132 6.688,-2.132 2.995,0 4.86,0.954 4.162,2.132 l -3.883,6.556 c -0.435,0.733 -0.069,1.403 0.878,1.887 0.943,0.483 2.459,0.78 4.325,0.78 h 4.767 l 12.665,-21.377 c 4.021,-6.791 12.868,-12.349 19.659,-12.349 6.795,0 9.061,5.558 5.037,12.349 z"
             style="fill:#db9900;fill-opacity:1;fill-rule:evenodd;stroke:none"
             id="path42881" />
        </g>
        <g
           id="g42883"
           transform="translate(398.0723,733.2261)">
          <path
             d="m 0,0 h 7.818 c 3.057,0 5.834,1.251 7.852,3.268 2.017,2.017 3.268,4.795 3.268,7.852 v 27.329 c 0,4.912 3.979,8.892 8.888,8.892 4.909,0 8.889,-3.98 8.889,-8.892 V 11.12 c 0,-7.963 -3.24,-15.19 -8.474,-20.423 -5.234,-5.234 -12.457,-8.474 -20.423,-8.474 H 0 v -76.497 h -24.7 v 63.332 h -4.767 c -4.857,0 -9.269,1.979 -12.464,5.171 -3.192,3.192 -5.168,7.6 -5.168,12.46 V 3.365 c 0,2.998 2.429,5.423 5.423,5.423 2.995,0 5.424,-2.425 5.424,-5.423 v -16.676 c 0,-1.865 0.764,-3.561 1.993,-4.791 1.23,-1.23 2.926,-1.993 4.792,-1.993 h 4.767 v 73.426 c 0,6.795 5.558,12.354 12.35,12.354 h 0.003 C -5.555,65.685 0,60.126 0,53.331 Z"
             style="fill:#acb865;fill-opacity:1;fill-rule:evenodd;stroke:none"
             id="path42885" />
        </g>
        <g
           id="g42887"
           transform="translate(1068.5889,635.8735)">
          <path
             d="m 0,0 v 0 h 4.421 c 1.727,0 3.466,-0.28 4.871,-0.726 1.406,-0.449 2.48,-1.067 2.882,-1.744 l 3.599,-6.08 c 0.646,-1.092 3.423,-1.976 6.198,-1.976 2.777,0 4.505,0.884 3.858,1.976 l -3.6,6.08 C 21.18,-0.702 18.396,0.909 14.747,2.069 11.099,3.23 6.584,3.956 2.079,3.956 h -4.418 l -10.074,17.009 h -13.97 l 8.339,-14.084 h -2.697 c -2.746,0 -4.982,-0.438 -6.367,-1.15 -1.382,-0.711 -1.921,-1.693 -1.282,-2.77 l 2.198,-3.71 c 0.393,-0.664 2.086,-1.206 3.779,-1.206 1.695,0 2.75,0.542 2.355,1.206 l -2.197,3.71 c -0.245,0.414 -0.037,0.791 0.494,1.063 0.535,0.277 1.396,0.443 2.449,0.443 h 2.699 l 7.158,-12.091 c 2.276,-3.842 7.278,-6.982 11.123,-6.982 3.838,0 5.12,3.14 2.847,6.982 z"
             style="fill:#db9900;fill-opacity:1;fill-rule:evenodd;stroke:none"
             id="path42889" />
        </g>
        <g
           id="g42891"
           transform="translate(1056.1758,710.1562)">
          <path
             d="m 0,0 h 4.419 c 1.73,0 3.303,0.708 4.442,1.845 1.141,1.143 1.849,2.715 1.849,4.443 v 15.455 c 0,2.778 2.249,5.03 5.026,5.03 2.778,0 5.027,-2.252 5.027,-5.03 V 6.288 c 0,-4.505 -1.831,-8.592 -4.792,-11.553 -2.96,-2.957 -7.047,-4.791 -11.552,-4.791 H 0 V -53.317 H -13.97 V -17.5 h -2.698 c -2.746,0 -5.24,1.119 -7.047,2.922 -1.804,1.807 -2.923,4.301 -2.923,7.047 V 1.9 c 0,1.696 1.372,3.068 3.065,3.068 1.696,0 3.071,-1.372 3.071,-3.068 v -9.431 c 0,-1.053 0.432,-2.01 1.126,-2.708 0.694,-0.694 1.654,-1.126 2.708,-1.126 h 2.698 v 41.527 c 0,3.842 3.144,6.982 6.986,6.982 3.841,0 6.984,-3.14 6.984,-6.982 z"
             style="fill:#cdd986;fill-opacity:1;fill-rule:evenodd;stroke:none"
             id="path42893" />
        </g>
        <g
           id="g42895"
           transform="translate(158.4893,916.9663)">
          <path
             d="M 0,0 C 67.222,0 122.046,54.823 122.046,122.042 122.046,189.26 67.222,244.087 0,244.087 -67.222,244.087 -122.046,189.26 -122.046,122.042 -122.046,54.823 -67.222,0 0,0"
             style="fill:#fefffa;fill-opacity:1;fill-rule:evenodd;stroke:none"
             id="path42897" />
        </g>
        <g
           id="g42899"
           transform="translate(596.1973,1118.0098)">
          <path
             d="m 0,0 c 1.775,0 3.513,-0.169 5.195,-0.494 8.312,15.103 24.383,25.343 42.844,25.343 9.047,0 17.522,-2.46 24.786,-6.744 2.705,10.544 12.278,18.341 23.667,18.341 0.816,0 1.617,-0.038 2.411,-0.118 1.748,9.49 10.06,16.682 20.058,16.682 10.806,0 19.649,-8.408 20.347,-19.038 12.837,-2.795 23.087,-12.505 26.648,-25.035 5.963,2.252 12.419,3.489 19.166,3.489 12.788,0 24.541,-4.428 33.813,-11.828 2.131,17.404 16.961,30.877 34.939,30.877 17.726,0 32.39,-13.103 34.839,-30.152 4.197,2.108 8.94,3.296 13.96,3.296 16.07,0 29.298,-12.178 30.956,-27.809 H -27.025 C -25.028,-10.063 -13.69,0 0,0"
             style="fill:#ffffff;fill-opacity:1;fill-rule:evenodd;stroke:none"
             id="path42901" />
        </g>
        <g
           id="g42903"
           transform="translate(1167.8828,1025.7495)">
          <path
             d="m 0,0 c 0.072,0.681 0.11,1.372 0.11,2.073 0,10.737 -8.702,19.438 -19.438,19.438 -2.92,0 -5.691,-0.646 -8.174,-1.8 -4.474,6.526 -11.98,10.807 -20.489,10.807 -5.24,0 -10.101,-1.624 -14.109,-4.398 -5.43,11.465 -17.103,19.397 -30.63,19.397 -10.772,0 -20.369,-5.03 -26.577,-12.865 -2.328,0.629 -4.777,0.968 -7.302,0.968 -11.58,0 -21.515,-7.048 -25.747,-17.087 -5.378,8.702 -15,14.503 -25.978,14.503 -10.025,0 -18.917,-4.833 -24.48,-12.295 -1.733,0.591 -3.588,0.915 -5.52,0.915 -9.427,0 -17.068,-7.641 -17.068,-17.072 0,-0.877 0.065,-1.741 0.193,-2.584 z"
             style="fill:#ffffff;fill-opacity:1;fill-rule:evenodd;stroke:none"
             id="path42905" />
        </g>
        <g
           id="g42907"
           transform="translate(354.1616,549.5273)">
          <path
             d="m 0,0 h 177.753 c 15.691,0 28.525,-12.837 28.525,-28.521 0,-15.69 -12.834,-28.524 -28.525,-28.524 H 0 c -15.687,0 -28.521,12.834 -28.521,28.524 C -28.521,-12.837 -15.687,0 0,0"
             style="fill:#ffbb00;fill-opacity:1;fill-rule:evenodd;stroke:none"
             id="path42909" />
        </g>
      </g>
    </g>
  </g>
</svg>
